<svg width="293" height="113" viewBox="0 0 293 113" fill="none" xmlns="http://www.w3.org/2000/svg">
<path d="M0 33.3584L8.08689 0L47.5105 3.36954L40.7714 11.7934L49.1952 20.5542C23.5868 18.1955 23.7889 27.2932 13.8151 42.1192L11.1195 29.315L8.08689 30.4177L6.73907 39.0866H3.70649L6.73907 30.9078L0 33.3584Z" fill="#4467D4"/>
<path d="M27.7659 41.6694L34.4059 26.3694H34.5659L41.2059 41.6694H37.8459L33.6059 30.9094L35.7059 29.4694L30.6259 41.6694H27.7659ZM32.3059 36.3494H36.7259L37.7459 38.7894H31.4059L32.3059 36.3494ZM45.7317 41.8494C45.0117 41.8494 44.3383 41.7228 43.7117 41.4694C43.0983 41.2161 42.5783 40.8628 42.1517 40.4094L43.3117 38.8694C43.7383 39.2561 44.1317 39.5361 44.4917 39.7094C44.865 39.8694 45.1983 39.9494 45.4917 39.9494C45.7183 39.9494 45.9183 39.9294 46.0917 39.8894C46.2783 39.8361 46.425 39.7628 46.5317 39.6694C46.6383 39.5628 46.6917 39.4294 46.6917 39.2694C46.6917 39.0428 46.5983 38.8628 46.4117 38.7294C46.2383 38.5961 46.0117 38.4894 45.7317 38.4094C45.4517 38.3161 45.1517 38.2228 44.8317 38.1294C44.0317 37.8761 43.4517 37.5094 43.0917 37.0294C42.745 36.5361 42.5717 36.0028 42.5717 35.4294C42.5717 34.9894 42.685 34.5494 42.9117 34.1094C43.1517 33.6561 43.525 33.2828 44.0317 32.9894C44.5517 32.6828 45.2183 32.5294 46.0317 32.5294C46.765 32.5294 47.385 32.6028 47.8917 32.7494C48.3983 32.8961 48.8783 33.1361 49.3317 33.4694L48.2717 35.1094C48.0183 34.9094 47.7317 34.7428 47.4117 34.6094C47.105 34.4628 46.8183 34.3828 46.5517 34.3694C46.3117 34.3561 46.105 34.3828 45.9317 34.4494C45.7717 34.5161 45.645 34.6028 45.5517 34.7094C45.4583 34.8161 45.4117 34.9294 45.4117 35.0494C45.3983 35.3028 45.4917 35.5028 45.6917 35.6494C45.905 35.7961 46.1717 35.9094 46.4917 35.9894C46.8117 36.0694 47.125 36.1628 47.4317 36.2694C47.8583 36.4028 48.225 36.5828 48.5317 36.8094C48.8383 37.0361 49.0717 37.3094 49.2317 37.6294C49.405 37.9361 49.4917 38.3094 49.4917 38.7494C49.4917 39.2828 49.3517 39.7894 49.0717 40.2694C48.805 40.7361 48.3917 41.1161 47.8317 41.4094C47.285 41.7028 46.585 41.8494 45.7317 41.8494ZM55.517 41.9094C54.7036 41.9094 53.9636 41.7494 53.297 41.4294C52.6436 41.0961 52.1236 40.5894 51.737 39.9094C51.3503 39.2294 51.157 38.3628 51.157 37.3094C51.157 36.3228 51.357 35.4694 51.757 34.7494C52.157 34.0294 52.6836 33.4761 53.337 33.0894C53.9903 32.6894 54.6836 32.4894 55.417 32.4894C56.2836 32.4894 56.937 32.6361 57.377 32.9294C57.8303 33.2094 58.2036 33.5228 58.497 33.8694L58.377 34.2094L58.637 32.9294H61.237V41.6694H58.437V39.7694L58.657 40.3694C58.6303 40.3694 58.5503 40.4494 58.417 40.6094C58.2836 40.7561 58.0836 40.9361 57.817 41.1494C57.5636 41.3494 57.2436 41.5228 56.857 41.6694C56.4836 41.8294 56.037 41.9094 55.517 41.9094ZM56.317 39.6294C56.6503 39.6294 56.9503 39.5828 57.217 39.4894C57.4836 39.3828 57.717 39.2361 57.917 39.0494C58.117 38.8494 58.2903 38.6028 58.437 38.3094V36.1694C58.3303 35.8761 58.1703 35.6294 57.957 35.4294C57.7436 35.2161 57.4903 35.0561 57.197 34.9494C56.9036 34.8294 56.577 34.7694 56.217 34.7694C55.817 34.7694 55.4436 34.8761 55.097 35.0894C54.7636 35.2894 54.497 35.5694 54.297 35.9294C54.097 36.2894 53.997 36.7028 53.997 37.1694C53.997 37.6361 54.1036 38.0561 54.317 38.4294C54.5303 38.8028 54.8103 39.0961 55.157 39.3094C55.517 39.5228 55.9036 39.6294 56.317 39.6294ZM64.1221 41.6694V25.8894H66.8621V34.6894L66.8421 34.3494C67.1488 33.8028 67.5821 33.3628 68.1421 33.0294C68.7021 32.6828 69.3888 32.5094 70.2021 32.5094C71.0288 32.5094 71.7155 32.7561 72.2621 33.2494C72.8221 33.7294 73.1088 34.3561 73.1221 35.1294V41.6694H70.3221V36.1694C70.3088 35.7828 70.2021 35.4761 70.0021 35.2494C69.8155 35.0094 69.4955 34.8894 69.0421 34.8894C68.6155 34.8894 68.2421 35.0294 67.9221 35.3094C67.6021 35.5894 67.3555 35.9694 67.1821 36.4494C67.0088 36.9294 66.9221 37.4828 66.9221 38.1094V41.6694H64.1221ZM87.421 26.9494C88.6344 26.9494 89.661 27.1561 90.501 27.5694C91.341 27.9694 91.981 28.5428 92.421 29.2894C92.861 30.0228 93.081 30.8961 93.081 31.9094C93.081 32.5094 92.9877 33.1161 92.801 33.7294C92.6277 34.3294 92.341 34.8761 91.941 35.3694C91.5544 35.8628 91.0277 36.2628 90.361 36.5694C89.7077 36.8628 88.901 37.0094 87.941 37.0094H85.861V41.6694H82.961V26.9494H87.421ZM87.921 34.1894C88.361 34.1894 88.7277 34.1161 89.021 33.9694C89.3144 33.8094 89.541 33.6161 89.701 33.3894C89.8744 33.1494 89.9944 32.9028 90.061 32.6494C90.141 32.3961 90.181 32.1761 90.181 31.9894C90.181 31.8428 90.1544 31.6494 90.101 31.4094C90.061 31.1561 89.9677 30.9028 89.821 30.6494C89.6744 30.3961 89.4477 30.1828 89.141 30.0094C88.8477 29.8361 88.4477 29.7494 87.941 29.7494H85.861V34.1894H87.921ZM97.7359 32.9294L97.9959 35.3294L97.9359 34.9694C98.1892 34.4494 98.5359 34.0094 98.9759 33.6494C99.4159 33.2761 99.8492 32.9894 100.276 32.7894C100.716 32.5894 101.049 32.4894 101.276 32.4894L101.136 35.2894C100.483 35.2094 99.9225 35.3161 99.4559 35.6094C98.9892 35.9028 98.6292 36.2894 98.3759 36.7694C98.1225 37.2494 97.9959 37.7428 97.9959 38.2494V41.6694H95.2159V32.9294H97.7359ZM107.328 41.9094C106.262 41.9094 105.355 41.7094 104.608 41.3094C103.875 40.9094 103.315 40.3561 102.928 39.6494C102.542 38.9428 102.348 38.1294 102.348 37.2094C102.348 36.3294 102.575 35.5361 103.028 34.8294C103.482 34.1228 104.088 33.5628 104.848 33.1494C105.608 32.7228 106.455 32.5094 107.388 32.5094C108.642 32.5094 109.668 32.8761 110.468 33.6094C111.282 34.3294 111.808 35.3761 112.048 36.7494L105.248 38.9094L104.628 37.3894L109.548 35.7294L108.968 35.9894C108.862 35.6428 108.668 35.3428 108.388 35.0894C108.122 34.8228 107.715 34.6894 107.168 34.6894C106.755 34.6894 106.388 34.7894 106.068 34.9894C105.762 35.1761 105.522 35.4494 105.348 35.8094C105.188 36.1561 105.108 36.5694 105.108 37.0494C105.108 37.5961 105.208 38.0561 105.408 38.4294C105.608 38.7894 105.882 39.0628 106.228 39.2494C106.575 39.4361 106.962 39.5294 107.388 39.5294C107.695 39.5294 107.988 39.4761 108.268 39.3694C108.562 39.2628 108.848 39.1228 109.128 38.9494L110.368 41.0294C109.902 41.2961 109.395 41.5094 108.848 41.6694C108.315 41.8294 107.808 41.9094 107.328 41.9094ZM116.923 41.8494C116.203 41.8494 115.53 41.7228 114.903 41.4694C114.29 41.2161 113.77 40.8628 113.343 40.4094L114.503 38.8694C114.93 39.2561 115.323 39.5361 115.683 39.7094C116.056 39.8694 116.39 39.9494 116.683 39.9494C116.91 39.9494 117.11 39.9294 117.283 39.8894C117.47 39.8361 117.616 39.7628 117.723 39.6694C117.83 39.5628 117.883 39.4294 117.883 39.2694C117.883 39.0428 117.79 38.8628 117.603 38.7294C117.43 38.5961 117.203 38.4894 116.923 38.4094C116.643 38.3161 116.343 38.2228 116.023 38.1294C115.223 37.8761 114.643 37.5094 114.283 37.0294C113.936 36.5361 113.763 36.0028 113.763 35.4294C113.763 34.9894 113.876 34.5494 114.103 34.1094C114.343 33.6561 114.716 33.2828 115.223 32.9894C115.743 32.6828 116.41 32.5294 117.223 32.5294C117.956 32.5294 118.576 32.6028 119.083 32.7494C119.59 32.8961 120.07 33.1361 120.523 33.4694L119.463 35.1094C119.21 34.9094 118.923 34.7428 118.603 34.6094C118.296 34.4628 118.01 34.3828 117.743 34.3694C117.503 34.3561 117.296 34.3828 117.123 34.4494C116.963 34.5161 116.836 34.6028 116.743 34.7094C116.65 34.8161 116.603 34.9294 116.603 35.0494C116.59 35.3028 116.683 35.5028 116.883 35.6494C117.096 35.7961 117.363 35.9094 117.683 35.9894C118.003 36.0694 118.316 36.1628 118.623 36.2694C119.05 36.4028 119.416 36.5828 119.723 36.8094C120.03 37.0361 120.263 37.3094 120.423 37.6294C120.596 37.9361 120.683 38.3094 120.683 38.7494C120.683 39.2828 120.543 39.7894 120.263 40.2694C119.996 40.7361 119.583 41.1161 119.023 41.4094C118.476 41.7028 117.776 41.8494 116.923 41.8494ZM123.848 29.0894H126.648V32.8894H128.768V35.0694H126.648V41.6694H123.848V35.0694H122.488V32.8894H123.848V29.0894ZM134.579 41.9094C133.766 41.9094 133.026 41.7494 132.359 41.4294C131.706 41.0961 131.186 40.5894 130.799 39.9094C130.413 39.2294 130.219 38.3628 130.219 37.3094C130.219 36.3228 130.419 35.4694 130.819 34.7494C131.219 34.0294 131.746 33.4761 132.399 33.0894C133.053 32.6894 133.746 32.4894 134.479 32.4894C135.346 32.4894 135.999 32.6361 136.439 32.9294C136.893 33.2094 137.266 33.5228 137.559 33.8694L137.439 34.2094L137.699 32.9294H140.299V41.6694H137.499V39.7694L137.719 40.3694C137.693 40.3694 137.613 40.4494 137.479 40.6094C137.346 40.7561 137.146 40.9361 136.879 41.1494C136.626 41.3494 136.306 41.5228 135.919 41.6694C135.546 41.8294 135.099 41.9094 134.579 41.9094ZM135.379 39.6294C135.713 39.6294 136.013 39.5828 136.279 39.4894C136.546 39.3828 136.779 39.2361 136.979 39.0494C137.179 38.8494 137.353 38.6028 137.499 38.3094V36.1694C137.393 35.8761 137.233 35.6294 137.019 35.4294C136.806 35.2161 136.553 35.0561 136.259 34.9494C135.966 34.8294 135.639 34.7694 135.279 34.7694C134.879 34.7694 134.506 34.8761 134.159 35.0894C133.826 35.2894 133.559 35.5694 133.359 35.9294C133.159 36.2894 133.059 36.7028 133.059 37.1694C133.059 37.6361 133.166 38.0561 133.379 38.4294C133.593 38.8028 133.873 39.0961 134.219 39.3094C134.579 39.5228 134.966 39.6294 135.379 39.6294ZM146.025 41.8494C145.305 41.8494 144.631 41.7228 144.005 41.4694C143.391 41.2161 142.871 40.8628 142.445 40.4094L143.605 38.8694C144.031 39.2561 144.425 39.5361 144.785 39.7094C145.158 39.8694 145.491 39.9494 145.785 39.9494C146.011 39.9494 146.211 39.9294 146.385 39.8894C146.571 39.8361 146.718 39.7628 146.825 39.6694C146.931 39.5628 146.985 39.4294 146.985 39.2694C146.985 39.0428 146.891 38.8628 146.705 38.7294C146.531 38.5961 146.305 38.4894 146.025 38.4094C145.745 38.3161 145.445 38.2228 145.125 38.1294C144.325 37.8761 143.745 37.5094 143.385 37.0294C143.038 36.5361 142.865 36.0028 142.865 35.4294C142.865 34.9894 142.978 34.5494 143.205 34.1094C143.445 33.6561 143.818 33.2828 144.325 32.9894C144.845 32.6828 145.511 32.5294 146.325 32.5294C147.058 32.5294 147.678 32.6028 148.185 32.7494C148.691 32.8961 149.171 33.1361 149.625 33.4694L148.565 35.1094C148.311 34.9094 148.025 34.7428 147.705 34.6094C147.398 34.4628 147.111 34.3828 146.845 34.3694C146.605 34.3561 146.398 34.3828 146.225 34.4494C146.065 34.5161 145.938 34.6028 145.845 34.7094C145.751 34.8161 145.705 34.9294 145.705 35.0494C145.691 35.3028 145.785 35.5028 145.985 35.6494C146.198 35.7961 146.465 35.9094 146.785 35.9894C147.105 36.0694 147.418 36.1628 147.725 36.2694C148.151 36.4028 148.518 36.5828 148.825 36.8094C149.131 37.0361 149.365 37.3094 149.525 37.6294C149.698 37.9361 149.785 38.3094 149.785 38.7494C149.785 39.2828 149.645 39.7894 149.365 40.2694C149.098 40.7361 148.685 41.1161 148.125 41.4094C147.578 41.7028 146.878 41.8494 146.025 41.8494ZM152.13 32.9294H154.93V41.6694H152.13V32.9294ZM152.07 29.8294C152.07 29.4161 152.23 29.0761 152.55 28.8094C152.883 28.5428 153.237 28.4094 153.61 28.4094C153.983 28.4094 154.323 28.5428 154.63 28.8094C154.95 29.0761 155.11 29.4161 155.11 29.8294C155.11 30.2428 154.95 30.5828 154.63 30.8494C154.323 31.1028 153.983 31.2294 153.61 31.2294C153.237 31.2294 152.883 31.1028 152.55 30.8494C152.23 30.5828 152.07 30.2428 152.07 29.8294Z" fill="#4467D4"/>
<path d="M0.176 83.6694L4.448 71.7494H6.304L10.576 83.6694H8.896L7.92 80.8694H2.832L1.856 83.6694H0.176ZM3.328 79.4294H7.424L5.152 72.8854H5.6L3.328 79.4294ZM14.99 83.8614C14.126 83.8614 13.374 83.6481 12.734 83.2214C12.094 82.7948 11.6407 82.2188 11.374 81.4934L12.558 80.9174C12.8033 81.4294 13.1393 81.8348 13.566 82.1334C13.9927 82.4321 14.4673 82.5814 14.99 82.5814C15.4593 82.5814 15.8487 82.4694 16.158 82.2454C16.4673 82.0214 16.622 81.7281 16.622 81.3654C16.622 81.1094 16.5473 80.9068 16.398 80.7574C16.2593 80.5974 16.0887 80.4748 15.886 80.3894C15.6833 80.2934 15.4967 80.2241 15.326 80.1814L14.03 79.8134C13.2513 79.5894 12.6807 79.2694 12.318 78.8534C11.966 78.4374 11.79 77.9521 11.79 77.3974C11.79 76.8854 11.918 76.4428 12.174 76.0694C12.4407 75.6854 12.798 75.3868 13.246 75.1734C13.7047 74.9601 14.2167 74.8534 14.782 74.8534C15.5393 74.8534 16.2167 75.0454 16.814 75.4294C17.422 75.8134 17.854 76.3521 18.11 77.0454L16.894 77.6054C16.702 77.1574 16.414 76.8054 16.03 76.5494C15.646 76.2828 15.214 76.1494 14.734 76.1494C14.2967 76.1494 13.95 76.2614 13.694 76.4854C13.438 76.6988 13.31 76.9708 13.31 77.3014C13.31 77.5468 13.374 77.7494 13.502 77.9094C13.63 78.0588 13.7847 78.1761 13.966 78.2614C14.1473 78.3361 14.3233 78.4001 14.494 78.4534L15.902 78.8694C16.606 79.0721 17.15 79.3868 17.534 79.8134C17.9287 80.2401 18.126 80.7521 18.126 81.3494C18.126 81.8294 17.9927 82.2614 17.726 82.6454C17.4593 83.0294 17.0913 83.3281 16.622 83.5414C16.1527 83.7548 15.6087 83.8614 14.99 83.8614ZM22.6019 83.8614C22.0365 83.8614 21.5352 83.7601 21.0979 83.5574C20.6712 83.3441 20.3352 83.0561 20.0899 82.6934C19.8445 82.3201 19.7219 81.8934 19.7219 81.4134C19.7219 80.9548 19.8179 80.5441 20.0099 80.1814C20.2125 79.8081 20.5219 79.4934 20.9379 79.2374C21.3645 78.9814 21.8979 78.8001 22.5379 78.6934L25.7379 78.1654V79.4134L22.8739 79.8934C22.3192 79.9894 21.9139 80.1654 21.6579 80.4214C21.4125 80.6774 21.2899 80.9921 21.2899 81.3654C21.2899 81.7174 21.4285 82.0108 21.7059 82.2454C21.9939 82.4801 22.3512 82.5974 22.7779 82.5974C23.3219 82.5974 23.7912 82.4854 24.1859 82.2614C24.5912 82.0268 24.9059 81.7121 25.1299 81.3174C25.3645 80.9228 25.4819 80.4854 25.4819 80.0054V77.8134C25.4819 77.3441 25.3059 76.9654 24.9539 76.6774C24.6125 76.3788 24.1592 76.2294 23.5939 76.2294C23.1032 76.2294 22.6659 76.3574 22.2819 76.6134C21.9085 76.8588 21.6312 77.1894 21.4499 77.6054L20.1539 76.9334C20.3139 76.5388 20.5699 76.1868 20.9219 75.8774C21.2739 75.5574 21.6845 75.3068 22.1539 75.1254C22.6232 74.9441 23.1139 74.8534 23.6259 74.8534C24.2872 74.8534 24.8685 74.9814 25.3699 75.2374C25.8712 75.4828 26.2605 75.8294 26.5379 76.2774C26.8259 76.7148 26.9699 77.2268 26.9699 77.8134V83.6694H25.5139V82.0374L25.7859 82.1334C25.6045 82.4748 25.3592 82.7734 25.0499 83.0294C24.7405 83.2854 24.3779 83.4881 23.9619 83.6374C23.5459 83.7868 23.0925 83.8614 22.6019 83.8614ZM29.277 83.6694V71.5574H30.765V76.7254L30.493 76.5814C30.7063 76.0374 31.0477 75.6161 31.517 75.3174C31.997 75.0081 32.557 74.8534 33.197 74.8534C33.8157 74.8534 34.365 74.9921 34.845 75.2694C35.3357 75.5468 35.7197 75.9308 35.997 76.4214C36.285 76.9121 36.429 77.4668 36.429 78.0854V83.6694H34.925V78.5654C34.925 78.0854 34.8343 77.6801 34.653 77.3494C34.4823 77.0188 34.2423 76.7628 33.933 76.5814C33.6237 76.3894 33.2663 76.2934 32.861 76.2934C32.4663 76.2934 32.109 76.3894 31.789 76.5814C31.469 76.7628 31.2183 77.0241 31.037 77.3654C30.8557 77.6961 30.765 78.0961 30.765 78.5654V83.6694H29.277ZM41.4999 83.6694V71.7494H46.5079C47.2225 71.7494 47.8359 71.8774 48.3479 72.1334C48.8705 72.3894 49.2705 72.7521 49.5479 73.2214C49.8359 73.6801 49.9799 74.2294 49.9799 74.8694C49.9799 75.4561 49.8252 75.9894 49.5159 76.4694C49.2172 76.9388 48.7745 77.3068 48.1879 77.5734L48.1719 76.9814C48.6839 77.1734 49.1052 77.4294 49.4359 77.7494C49.7772 78.0588 50.0332 78.4214 50.2039 78.8374C50.3745 79.2428 50.4599 79.6748 50.4599 80.1334C50.4599 81.2321 50.1079 82.0961 49.4039 82.7254C48.6999 83.3548 47.7399 83.6694 46.5239 83.6694H41.4999ZM43.0679 82.2294H46.5879C47.2812 82.2294 47.8359 82.0428 48.2519 81.6694C48.6679 81.2961 48.8759 80.7894 48.8759 80.1494C48.8759 79.5094 48.6679 79.0028 48.2519 78.6294C47.8359 78.2454 47.2812 78.0534 46.5879 78.0534H43.0679V82.2294ZM43.0679 76.6454H46.4759C47.0519 76.6454 47.5159 76.4801 47.8679 76.1494C48.2199 75.8081 48.3959 75.3761 48.3959 74.8534C48.3959 74.3094 48.2199 73.8934 47.8679 73.6054C47.5159 73.3174 47.0519 73.1734 46.4759 73.1734H43.0679V76.6454ZM54.93 83.8614C54.3647 83.8614 53.8633 83.7601 53.426 83.5574C52.9993 83.3441 52.6633 83.0561 52.418 82.6934C52.1727 82.3201 52.05 81.8934 52.05 81.4134C52.05 80.9548 52.146 80.5441 52.338 80.1814C52.5407 79.8081 52.85 79.4934 53.266 79.2374C53.6927 78.9814 54.226 78.8001 54.866 78.6934L58.066 78.1654V79.4134L55.202 79.8934C54.6473 79.9894 54.242 80.1654 53.986 80.4214C53.7407 80.6774 53.618 80.9921 53.618 81.3654C53.618 81.7174 53.7567 82.0108 54.034 82.2454C54.322 82.4801 54.6793 82.5974 55.106 82.5974C55.65 82.5974 56.1193 82.4854 56.514 82.2614C56.9193 82.0268 57.234 81.7121 57.458 81.3174C57.6927 80.9228 57.81 80.4854 57.81 80.0054V77.8134C57.81 77.3441 57.634 76.9654 57.282 76.6774C56.9407 76.3788 56.4873 76.2294 55.922 76.2294C55.4313 76.2294 54.994 76.3574 54.61 76.6134C54.2367 76.8588 53.9593 77.1894 53.778 77.6054L52.482 76.9334C52.642 76.5388 52.898 76.1868 53.25 75.8774C53.602 75.5574 54.0127 75.3068 54.482 75.1254C54.9513 74.9441 55.442 74.8534 55.954 74.8534C56.6153 74.8534 57.1967 74.9814 57.698 75.2374C58.1993 75.4828 58.5887 75.8294 58.866 76.2774C59.154 76.7148 59.298 77.2268 59.298 77.8134V83.6694H57.842V82.0374L58.114 82.1334C57.9327 82.4748 57.6873 82.7734 57.378 83.0294C57.0687 83.2854 56.706 83.4881 56.29 83.6374C55.874 83.7868 55.4207 83.8614 54.93 83.8614ZM61.6051 83.6694V71.5574H63.0931V79.8614L62.4851 79.7174L67.0611 75.0454H68.9651L65.6531 78.5174L69.1891 83.6694H67.4291L64.1971 78.9974L65.1251 78.9494L62.6131 81.5734L63.0931 80.4854V83.6694H61.6051ZM73.055 83.8614C72.4897 83.8614 71.9883 83.7601 71.551 83.5574C71.1243 83.3441 70.7883 83.0561 70.543 82.6934C70.2977 82.3201 70.175 81.8934 70.175 81.4134C70.175 80.9548 70.271 80.5441 70.463 80.1814C70.6657 79.8081 70.975 79.4934 71.391 79.2374C71.8177 78.9814 72.351 78.8001 72.991 78.6934L76.191 78.1654V79.4134L73.327 79.8934C72.7723 79.9894 72.367 80.1654 72.111 80.4214C71.8657 80.6774 71.743 80.9921 71.743 81.3654C71.743 81.7174 71.8817 82.0108 72.159 82.2454C72.447 82.4801 72.8043 82.5974 73.231 82.5974C73.775 82.5974 74.2443 82.4854 74.639 82.2614C75.0443 82.0268 75.359 81.7121 75.583 81.3174C75.8177 80.9228 75.935 80.4854 75.935 80.0054V77.8134C75.935 77.3441 75.759 76.9654 75.407 76.6774C75.0657 76.3788 74.6123 76.2294 74.047 76.2294C73.5563 76.2294 73.119 76.3574 72.735 76.6134C72.3617 76.8588 72.0843 77.1894 71.903 77.6054L70.607 76.9334C70.767 76.5388 71.023 76.1868 71.375 75.8774C71.727 75.5574 72.1377 75.3068 72.607 75.1254C73.0763 74.9441 73.567 74.8534 74.079 74.8534C74.7403 74.8534 75.3217 74.9814 75.823 75.2374C76.3243 75.4828 76.7137 75.8294 76.991 76.2774C77.279 76.7148 77.423 77.2268 77.423 77.8134V83.6694H75.967V82.0374L76.239 82.1334C76.0577 82.4748 75.8123 82.7734 75.503 83.0294C75.1937 83.2854 74.831 83.4881 74.415 83.6374C73.999 83.7868 73.5457 83.8614 73.055 83.8614ZM83.0779 83.7654C82.2352 83.7654 81.5845 83.5254 81.1259 83.0454C80.6779 82.5654 80.4539 81.8881 80.4539 81.0134V76.4694H78.8859V75.0454H79.2059C79.5899 75.0454 79.8939 74.9281 80.1179 74.6934C80.3419 74.4588 80.4539 74.1494 80.4539 73.7654V73.0614H81.9419V75.0454H83.8779V76.4694H81.9419V80.9654C81.9419 81.2534 81.9845 81.5041 82.0699 81.7174C82.1659 81.9308 82.3205 82.1014 82.5339 82.2294C82.7472 82.3468 83.0299 82.4054 83.3819 82.4054C83.4565 82.4054 83.5472 82.4001 83.6539 82.3894C83.7712 82.3788 83.8779 82.3681 83.9739 82.3574V83.6694C83.8352 83.7014 83.6805 83.7228 83.5099 83.7334C83.3392 83.7548 83.1952 83.7654 83.0779 83.7654ZM85.9176 83.6694V75.0454H87.3736V76.8054L87.1656 76.5334C87.379 75.9894 87.7203 75.5734 88.1896 75.2854C88.659 74.9974 89.187 74.8534 89.7736 74.8534C90.4456 74.8534 91.0483 75.0401 91.5816 75.4134C92.1256 75.7868 92.499 76.2774 92.7016 76.8854L92.2856 76.9014C92.5096 76.2294 92.8883 75.7228 93.4216 75.3814C93.955 75.0294 94.547 74.8534 95.1976 74.8534C95.795 74.8534 96.3336 74.9921 96.8136 75.2694C97.3043 75.5468 97.6936 75.9308 97.9816 76.4214C98.2696 76.9121 98.4136 77.4668 98.4136 78.0854V83.6694H96.9096V78.5654C96.9096 78.0854 96.8243 77.6801 96.6536 77.3494C96.483 77.0188 96.2483 76.7628 95.9496 76.5814C95.6616 76.3894 95.3203 76.2934 94.9256 76.2934C94.5416 76.2934 94.195 76.3894 93.8856 76.5814C93.587 76.7628 93.347 77.0241 93.1656 77.3654C92.995 77.6961 92.9096 78.0961 92.9096 78.5654V83.6694H91.4056V78.5654C91.4056 78.0854 91.3203 77.6801 91.1496 77.3494C90.979 77.0188 90.7443 76.7628 90.4456 76.5814C90.1576 76.3894 89.8163 76.2934 89.4216 76.2934C89.0376 76.2934 88.691 76.3894 88.3816 76.5814C88.083 76.7628 87.843 77.0241 87.6616 77.3654C87.491 77.6961 87.4056 78.0961 87.4056 78.5654V83.6694H85.9176ZM103.583 83.8614C102.964 83.8614 102.404 83.7174 101.903 83.4294C101.412 83.1414 101.028 82.7414 100.751 82.2294C100.484 81.7068 100.351 81.1094 100.351 80.4374V75.0454H101.839V80.2774C101.839 80.7041 101.924 81.0774 102.095 81.3974C102.276 81.7174 102.522 81.9681 102.831 82.1494C103.151 82.3308 103.514 82.4214 103.919 82.4214C104.324 82.4214 104.682 82.3308 104.991 82.1494C105.311 81.9681 105.556 81.7068 105.727 81.3654C105.908 81.0241 105.999 80.6188 105.999 80.1494V75.0454H107.503V83.6694H106.047V81.9894L106.287 82.1334C106.084 82.6774 105.738 83.1041 105.247 83.4134C104.767 83.7121 104.212 83.8614 103.583 83.8614ZM110.064 85.8934V85.1734C110.395 85.0881 110.646 84.9228 110.816 84.6774C110.987 84.4321 111.083 84.0961 111.104 83.6694H110.384V81.7494H111.936V83.1094C111.936 83.8774 111.776 84.4961 111.456 84.9654C111.147 85.4348 110.683 85.7441 110.064 85.8934ZM3.408 107.669V97.1894H0.176V95.7494H8.176V97.1894H4.992V107.669H3.408ZM9.51138 107.669V99.0454H10.9994V107.669H9.51138ZM9.51138 97.6694V95.7494H10.9994V97.6694H9.51138ZM13.3083 107.669V99.0454H14.7643V100.725L14.5243 100.581C14.7376 100.037 15.0789 99.6161 15.5483 99.3174C16.0283 99.0081 16.5883 98.8534 17.2283 98.8534C17.8469 98.8534 18.3963 98.9921 18.8763 99.2694C19.3669 99.5468 19.7509 99.9308 20.0283 100.421C20.3163 100.912 20.4603 101.467 20.4603 102.085V107.669H18.9563V102.565C18.9563 102.085 18.8709 101.68 18.7003 101.349C18.5296 101.019 18.2843 100.763 17.9643 100.581C17.6549 100.389 17.2976 100.293 16.8923 100.293C16.4869 100.293 16.1243 100.389 15.8043 100.581C15.4949 100.763 15.2496 101.024 15.0683 101.365C14.8869 101.696 14.7963 102.096 14.7963 102.565V107.669H13.3083ZM26.7015 111.189C26.0935 111.189 25.5282 111.093 25.0055 110.901C24.4935 110.709 24.0508 110.443 23.6775 110.101C23.3148 109.771 23.0375 109.381 22.8455 108.933L24.2375 108.293C24.3868 108.699 24.6695 109.04 25.0855 109.317C25.5122 109.605 26.0455 109.749 26.6855 109.749C27.1762 109.749 27.6188 109.653 28.0135 109.461C28.4188 109.28 28.7388 109.003 28.9735 108.629C29.2082 108.267 29.3255 107.824 29.3255 107.301V105.365L29.5975 105.653C29.2988 106.24 28.8668 106.688 28.3015 106.997C27.7468 107.307 27.1335 107.461 26.4615 107.461C25.6508 107.461 24.9255 107.275 24.2855 106.901C23.6455 106.517 23.1442 106 22.7815 105.349C22.4188 104.688 22.2375 103.957 22.2375 103.157C22.2375 102.347 22.4188 101.616 22.7815 100.965C23.1442 100.315 23.6402 99.8028 24.2695 99.4294C24.9095 99.0454 25.6348 98.8534 26.4455 98.8534C27.1175 98.8534 27.7255 99.0081 28.2695 99.3174C28.8242 99.6161 29.2668 100.032 29.5975 100.565L29.3735 100.965V99.0454H30.8295V107.301C30.8295 108.048 30.6535 108.715 30.3015 109.301C29.9495 109.888 29.4588 110.347 28.8295 110.677C28.2108 111.019 27.5015 111.189 26.7015 111.189ZM26.5895 106.021C27.1015 106.021 27.5602 105.893 27.9655 105.637C28.3815 105.381 28.7122 105.04 28.9575 104.613C29.2028 104.176 29.3255 103.691 29.3255 103.157C29.3255 102.635 29.2028 102.155 28.9575 101.717C28.7122 101.28 28.3815 100.933 27.9655 100.677C27.5602 100.421 27.1015 100.293 26.5895 100.293C26.0668 100.293 25.5922 100.421 25.1655 100.677C24.7388 100.933 24.4028 101.28 24.1575 101.717C23.9228 102.144 23.8055 102.624 23.8055 103.157C23.8055 103.691 23.9228 104.176 24.1575 104.613C24.4028 105.04 24.7335 105.381 25.1495 105.637C25.5762 105.893 26.0562 106.021 26.5895 106.021ZM33.1364 107.669V95.5574H34.6244V103.861L34.0164 103.717L38.5924 99.0454H40.4964L37.1844 102.517L40.7204 107.669H38.9604L35.7284 102.997L36.6564 102.949L34.1444 105.573L34.6244 104.485V107.669H33.1364ZM44.5863 107.861C44.0209 107.861 43.5196 107.76 43.0823 107.557C42.6556 107.344 42.3196 107.056 42.0743 106.693C41.8289 106.32 41.7063 105.893 41.7063 105.413C41.7063 104.955 41.8023 104.544 41.9943 104.181C42.1969 103.808 42.5063 103.493 42.9223 103.237C43.3489 102.981 43.8823 102.8 44.5223 102.693L47.7223 102.165V103.413L44.8583 103.893C44.3036 103.989 43.8983 104.165 43.6423 104.421C43.3969 104.677 43.2743 104.992 43.2743 105.365C43.2743 105.717 43.4129 106.011 43.6903 106.245C43.9783 106.48 44.3356 106.597 44.7623 106.597C45.3063 106.597 45.7756 106.485 46.1703 106.261C46.5756 106.027 46.8903 105.712 47.1143 105.317C47.3489 104.923 47.4663 104.485 47.4663 104.005V101.813C47.4663 101.344 47.2903 100.965 46.9383 100.677C46.5969 100.379 46.1436 100.229 45.5783 100.229C45.0876 100.229 44.6503 100.357 44.2663 100.613C43.8929 100.859 43.6156 101.189 43.4343 101.605L42.1383 100.933C42.2983 100.539 42.5543 100.187 42.9062 99.8774C43.2583 99.5574 43.6689 99.3068 44.1383 99.1254C44.6076 98.9441 45.0983 98.8534 45.6102 98.8534C46.2716 98.8534 46.8529 98.9814 47.3543 99.2374C47.8556 99.4828 48.2449 99.8294 48.5223 100.277C48.8103 100.715 48.9543 101.227 48.9543 101.813V107.669H47.4983V106.037L47.7703 106.133C47.5889 106.475 47.3436 106.773 47.0343 107.029C46.7249 107.285 46.3623 107.488 45.9463 107.637C45.5303 107.787 45.0769 107.861 44.5863 107.861ZM54.6091 107.765C53.7665 107.765 53.1158 107.525 52.6571 107.045C52.2091 106.565 51.9851 105.888 51.9851 105.013V100.469H50.4171V99.0454H50.7371C51.1211 99.0454 51.4251 98.9281 51.6491 98.6934C51.8731 98.4588 51.9851 98.1494 51.9851 97.7654V97.0614H53.4731V99.0454H55.4091V100.469H53.4731V104.965C53.4731 105.253 53.5158 105.504 53.6011 105.717C53.6971 105.931 53.8518 106.101 54.0651 106.229C54.2785 106.347 54.5611 106.405 54.9131 106.405C54.9878 106.405 55.0785 106.4 55.1851 106.389C55.3025 106.379 55.4091 106.368 55.5051 106.357V107.669C55.3665 107.701 55.2118 107.723 55.0411 107.733C54.8705 107.755 54.7265 107.765 54.6091 107.765ZM57.4489 107.669V95.5574H58.9369V103.861L58.3289 103.717L62.9049 99.0454H64.8089L61.4969 102.517L65.0329 107.669H63.2729L60.0409 102.997L60.9689 102.949L58.4569 105.573L58.9369 104.485V107.669H57.4489ZM68.8988 107.861C68.3334 107.861 67.8321 107.76 67.3948 107.557C66.9681 107.344 66.6321 107.056 66.3868 106.693C66.1414 106.32 66.0188 105.893 66.0188 105.413C66.0188 104.955 66.1148 104.544 66.3068 104.181C66.5094 103.808 66.8188 103.493 67.2348 103.237C67.6614 102.981 68.1948 102.8 68.8348 102.693L72.0348 102.165V103.413L69.1708 103.893C68.6161 103.989 68.2108 104.165 67.9548 104.421C67.7094 104.677 67.5868 104.992 67.5868 105.365C67.5868 105.717 67.7254 106.011 68.0028 106.245C68.2908 106.48 68.6481 106.597 69.0748 106.597C69.6188 106.597 70.0881 106.485 70.4828 106.261C70.8881 106.027 71.2028 105.712 71.4268 105.317C71.6614 104.923 71.7788 104.485 71.7788 104.005V101.813C71.7788 101.344 71.6028 100.965 71.2508 100.677C70.9094 100.379 70.4561 100.229 69.8908 100.229C69.4001 100.229 68.9628 100.357 68.5788 100.613C68.2054 100.859 67.9281 101.189 67.7468 101.605L66.4508 100.933C66.6108 100.539 66.8668 100.187 67.2188 99.8774C67.5708 99.5574 67.9814 99.3068 68.4508 99.1254C68.9201 98.9441 69.4108 98.8534 69.9227 98.8534C70.5841 98.8534 71.1654 98.9814 71.6668 99.2374C72.1681 99.4828 72.5574 99.8294 72.8348 100.277C73.1228 100.715 73.2668 101.227 73.2668 101.813V107.669H71.8108V106.037L72.0828 106.133C71.9014 106.475 71.6561 106.773 71.3468 107.029C71.0374 107.285 70.6748 107.488 70.2588 107.637C69.8428 107.787 69.3894 107.861 68.8988 107.861ZM75.5739 107.669V99.0454H77.0299V100.725L76.7899 100.581C77.0032 100.037 77.3445 99.6161 77.8139 99.3174C78.2939 99.0081 78.8539 98.8534 79.4939 98.8534C80.1125 98.8534 80.6619 98.9921 81.1419 99.2694C81.6325 99.5468 82.0165 99.9308 82.2939 100.421C82.5819 100.912 82.7259 101.467 82.7259 102.085V107.669H81.2219V102.565C81.2219 102.085 81.1365 101.68 80.9659 101.349C80.7952 101.019 80.5499 100.763 80.2299 100.581C79.9205 100.389 79.5632 100.293 79.1579 100.293C78.7525 100.293 78.3899 100.389 78.0699 100.581C77.7605 100.763 77.5152 101.024 77.3339 101.365C77.1525 101.696 77.0619 102.096 77.0619 102.565V107.669H75.5739ZM87.7968 107.669V95.7494H92.0048C92.7941 95.7494 93.4874 95.8988 94.0848 96.1974C94.6821 96.4961 95.1461 96.9228 95.4768 97.4774C95.8181 98.0321 95.9888 98.6828 95.9888 99.4294C95.9888 100.176 95.8181 100.827 95.4768 101.381C95.1461 101.925 94.6821 102.352 94.0848 102.661C93.4981 102.96 92.8048 103.109 92.0048 103.109H89.3648V107.669H87.7968ZM89.3648 101.669H92.0528C92.5328 101.669 92.9488 101.579 93.3008 101.397C93.6528 101.216 93.9248 100.955 94.1168 100.613C94.3088 100.272 94.4048 99.8774 94.4048 99.4294C94.4048 98.9708 94.3088 98.5761 94.1168 98.2454C93.9248 97.9041 93.6528 97.6428 93.3008 97.4614C92.9488 97.2801 92.5328 97.1894 92.0528 97.1894H89.3648V101.669ZM97.9333 107.669V99.0454H99.3893V100.629L99.2293 100.405C99.4319 99.9148 99.7413 99.5521 100.157 99.3174C100.573 99.0721 101.08 98.9494 101.677 98.9494H102.205V100.357H101.453C100.845 100.357 100.355 100.549 99.9813 100.933C99.6079 101.307 99.4213 101.84 99.4213 102.533V107.669H97.9333ZM107.495 107.861C106.663 107.861 105.922 107.664 105.271 107.269C104.62 106.875 104.108 106.336 103.735 105.653C103.362 104.96 103.175 104.187 103.175 103.333C103.175 102.469 103.356 101.701 103.719 101.029C104.092 100.357 104.594 99.8294 105.223 99.4454C105.863 99.0508 106.578 98.8534 107.367 98.8534C108.007 98.8534 108.572 98.9708 109.063 99.2054C109.564 99.4294 109.986 99.7388 110.327 100.133C110.679 100.517 110.946 100.96 111.127 101.461C111.319 101.952 111.415 102.464 111.415 102.997C111.415 103.115 111.404 103.248 111.383 103.397C111.372 103.536 111.356 103.669 111.335 103.797H104.263V102.517H110.471L109.767 103.093C109.863 102.539 109.81 102.043 109.607 101.605C109.404 101.168 109.106 100.821 108.711 100.565C108.316 100.309 107.868 100.181 107.367 100.181C106.866 100.181 106.407 100.309 105.991 100.565C105.575 100.821 105.25 101.189 105.015 101.669C104.791 102.139 104.7 102.699 104.743 103.349C104.7 103.979 104.796 104.533 105.031 105.013C105.276 105.483 105.618 105.851 106.055 106.117C106.503 106.373 106.988 106.501 107.511 106.501C108.087 106.501 108.572 106.368 108.967 106.101C109.362 105.835 109.682 105.493 109.927 105.077L111.175 105.717C111.004 106.112 110.738 106.475 110.375 106.805C110.023 107.125 109.602 107.381 109.111 107.573C108.631 107.765 108.092 107.861 107.495 107.861ZM116.443 107.861C115.579 107.861 114.827 107.648 114.187 107.221C113.547 106.795 113.094 106.219 112.827 105.493L114.011 104.917C114.256 105.429 114.592 105.835 115.019 106.133C115.446 106.432 115.92 106.581 116.443 106.581C116.912 106.581 117.302 106.469 117.611 106.245C117.92 106.021 118.075 105.728 118.075 105.365C118.075 105.109 118 104.907 117.851 104.757C117.712 104.597 117.542 104.475 117.339 104.389C117.136 104.293 116.95 104.224 116.779 104.181L115.483 103.813C114.704 103.589 114.134 103.269 113.771 102.853C113.419 102.437 113.243 101.952 113.243 101.397C113.243 100.885 113.371 100.443 113.627 100.069C113.894 99.6854 114.251 99.3868 114.699 99.1734C115.158 98.9601 115.67 98.8534 116.235 98.8534C116.992 98.8534 117.67 99.0454 118.267 99.4294C118.875 99.8134 119.307 100.352 119.563 101.045L118.347 101.605C118.155 101.157 117.867 100.805 117.483 100.549C117.099 100.283 116.667 100.149 116.187 100.149C115.75 100.149 115.403 100.261 115.147 100.485C114.891 100.699 114.763 100.971 114.763 101.301C114.763 101.547 114.827 101.749 114.955 101.909C115.083 102.059 115.238 102.176 115.419 102.261C115.6 102.336 115.776 102.4 115.947 102.453L117.355 102.869C118.059 103.072 118.603 103.387 118.987 103.813C119.382 104.24 119.579 104.752 119.579 105.349C119.579 105.829 119.446 106.261 119.179 106.645C118.912 107.029 118.544 107.328 118.075 107.541C117.606 107.755 117.062 107.861 116.443 107.861ZM125.031 107.765C124.188 107.765 123.538 107.525 123.079 107.045C122.631 106.565 122.407 105.888 122.407 105.013V100.469H120.839V99.0454H121.159C121.543 99.0454 121.847 98.9281 122.071 98.6934C122.295 98.4588 122.407 98.1494 122.407 97.7654V97.0614H123.895V99.0454H125.831V100.469H123.895V104.965C123.895 105.253 123.938 105.504 124.023 105.717C124.119 105.931 124.274 106.101 124.487 106.229C124.7 106.347 124.983 106.405 125.335 106.405C125.41 106.405 125.5 106.4 125.607 106.389C125.724 106.379 125.831 106.368 125.927 106.357V107.669C125.788 107.701 125.634 107.723 125.463 107.733C125.292 107.755 125.148 107.765 125.031 107.765ZM130.289 107.861C129.724 107.861 129.223 107.76 128.785 107.557C128.359 107.344 128.023 107.056 127.777 106.693C127.532 106.32 127.409 105.893 127.409 105.413C127.409 104.955 127.505 104.544 127.697 104.181C127.9 103.808 128.209 103.493 128.625 103.237C129.052 102.981 129.585 102.8 130.225 102.693L133.425 102.165V103.413L130.561 103.893C130.007 103.989 129.601 104.165 129.345 104.421C129.1 104.677 128.977 104.992 128.977 105.365C128.977 105.717 129.116 106.011 129.393 106.245C129.681 106.48 130.039 106.597 130.465 106.597C131.009 106.597 131.479 106.485 131.873 106.261C132.279 106.027 132.593 105.712 132.817 105.317C133.052 104.923 133.169 104.485 133.169 104.005V101.813C133.169 101.344 132.993 100.965 132.641 100.677C132.3 100.379 131.847 100.229 131.281 100.229C130.791 100.229 130.353 100.357 129.969 100.613C129.596 100.859 129.319 101.189 129.137 101.605L127.841 100.933C128.001 100.539 128.257 100.187 128.609 99.8774C128.961 99.5574 129.372 99.3068 129.841 99.1254C130.311 98.9441 130.801 98.8534 131.313 98.8534C131.975 98.8534 132.556 98.9814 133.057 99.2374C133.559 99.4828 133.948 99.8294 134.225 100.277C134.513 100.715 134.657 101.227 134.657 101.813V107.669H133.201V106.037L133.473 106.133C133.292 106.475 133.047 106.773 132.737 107.029C132.428 107.285 132.065 107.488 131.649 107.637C131.233 107.787 130.78 107.861 130.289 107.861ZM140.053 107.861C139.189 107.861 138.437 107.648 137.797 107.221C137.157 106.795 136.703 106.219 136.437 105.493L137.621 104.917C137.866 105.429 138.202 105.835 138.629 106.133C139.055 106.432 139.53 106.581 140.053 106.581C140.522 106.581 140.911 106.469 141.221 106.245C141.53 106.021 141.685 105.728 141.685 105.365C141.685 105.109 141.61 104.907 141.461 104.757C141.322 104.597 141.151 104.475 140.949 104.389C140.746 104.293 140.559 104.224 140.389 104.181L139.093 103.813C138.314 103.589 137.743 103.269 137.381 102.853C137.029 102.437 136.853 101.952 136.853 101.397C136.853 100.885 136.981 100.443 137.237 100.069C137.503 99.6854 137.861 99.3868 138.309 99.1734C138.767 98.9601 139.279 98.8534 139.845 98.8534C140.602 98.8534 141.279 99.0454 141.877 99.4294C142.485 99.8134 142.917 100.352 143.173 101.045L141.957 101.605C141.765 101.157 141.477 100.805 141.093 100.549C140.709 100.283 140.277 100.149 139.797 100.149C139.359 100.149 139.013 100.261 138.757 100.485C138.501 100.699 138.373 100.971 138.373 101.301C138.373 101.547 138.437 101.749 138.565 101.909C138.693 102.059 138.847 102.176 139.029 102.261C139.21 102.336 139.386 102.4 139.557 102.453L140.965 102.869C141.669 103.072 142.213 103.387 142.597 103.813C142.991 104.24 143.189 104.752 143.189 105.349C143.189 105.829 143.055 106.261 142.789 106.645C142.522 107.029 142.154 107.328 141.685 107.541C141.215 107.755 140.671 107.861 140.053 107.861ZM145.136 107.669V99.0454H146.624V107.669H145.136ZM145.136 97.6694V95.7494H146.624V97.6694H145.136ZM148.933 107.669V99.0454H150.389V100.805L150.181 100.533C150.395 99.9894 150.736 99.5734 151.205 99.2854C151.675 98.9974 152.203 98.8534 152.789 98.8534C153.461 98.8534 154.064 99.0401 154.597 99.4134C155.141 99.7868 155.515 100.277 155.717 100.885L155.301 100.901C155.525 100.229 155.904 99.7228 156.437 99.3814C156.971 99.0294 157.563 98.8534 158.213 98.8534C158.811 98.8534 159.349 98.9921 159.829 99.2694C160.32 99.5468 160.709 99.9308 160.997 100.421C161.285 100.912 161.429 101.467 161.429 102.085V107.669H159.925V102.565C159.925 102.085 159.84 101.68 159.669 101.349C159.499 101.019 159.264 100.763 158.965 100.581C158.677 100.389 158.336 100.293 157.941 100.293C157.557 100.293 157.211 100.389 156.901 100.581C156.603 100.763 156.363 101.024 156.181 101.365C156.011 101.696 155.925 102.096 155.925 102.565V107.669H154.421V102.565C154.421 102.085 154.336 101.68 154.165 101.349C153.995 101.019 153.76 100.763 153.461 100.581C153.173 100.389 152.832 100.293 152.437 100.293C152.053 100.293 151.707 100.389 151.397 100.581C151.099 100.763 150.859 101.024 150.677 101.365C150.507 101.696 150.421 102.096 150.421 102.565V107.669H148.933ZM166.599 107.861C165.98 107.861 165.42 107.717 164.919 107.429C164.428 107.141 164.044 106.741 163.767 106.229C163.5 105.707 163.367 105.109 163.367 104.437V99.0454H164.855V104.277C164.855 104.704 164.94 105.077 165.111 105.397C165.292 105.717 165.537 105.968 165.847 106.149C166.167 106.331 166.529 106.421 166.935 106.421C167.34 106.421 167.697 106.331 168.007 106.149C168.327 105.968 168.572 105.707 168.743 105.365C168.924 105.024 169.015 104.619 169.015 104.149V99.0454H170.519V107.669H169.063V105.989L169.303 106.133C169.1 106.677 168.753 107.104 168.263 107.413C167.783 107.712 167.228 107.861 166.599 107.861ZM173.432 107.669V105.749H174.984V107.669H173.432Z" fill="#4467D4"/>
</svg>
