<svg width="153" height="52" viewBox="0 0 153 52" fill="none" xmlns="http://www.w3.org/2000/svg">
<path d="M0 33.3584L8.08689 0L47.5105 3.36954L40.7714 11.7934L49.1952 20.5542C23.5868 18.1955 23.7889 27.2932 13.8151 42.1192L11.1195 29.315L8.08689 30.4177L6.73907 39.0866H3.70649L6.73907 30.9078L0 33.3584Z" fill="#4466D4"/>
<path d="M27.7459 44.6693L32.8859 29.7693H36.4059L41.5459 44.6693H38.5859L37.5259 41.4693H31.7659L30.6859 44.6693H27.7459ZM32.5459 39.0693H36.7459L34.2659 31.6493H35.0259L32.5459 39.0693ZM46.6842 44.9093C45.5242 44.9093 44.5108 44.636 43.6442 44.0893C42.7908 43.5293 42.2042 42.776 41.8842 41.8293L43.8442 40.8893C44.1242 41.5027 44.5108 41.9827 45.0042 42.3293C45.5108 42.676 46.0708 42.8493 46.6842 42.8493C47.1642 42.8493 47.5442 42.7427 47.8242 42.5293C48.1042 42.316 48.2442 42.036 48.2442 41.6893C48.2442 41.476 48.1842 41.3027 48.0642 41.1693C47.9575 41.0227 47.8042 40.9027 47.6042 40.8093C47.4175 40.7027 47.2108 40.616 46.9842 40.5493L45.2042 40.0493C44.2842 39.7827 43.5842 39.376 43.1042 38.8293C42.6375 38.2827 42.4042 37.636 42.4042 36.8893C42.4042 36.2227 42.5708 35.6427 42.9042 35.1493C43.2508 34.6427 43.7242 34.2493 44.3242 33.9693C44.9375 33.6893 45.6375 33.5493 46.4242 33.5493C47.4508 33.5493 48.3575 33.796 49.1442 34.2893C49.9308 34.7827 50.4908 35.476 50.8242 36.3693L48.8242 37.3093C48.6375 36.816 48.3242 36.4227 47.8842 36.1293C47.4442 35.836 46.9508 35.6893 46.4042 35.6893C45.9642 35.6893 45.6175 35.7893 45.3642 35.9893C45.1108 36.1893 44.9842 36.4493 44.9842 36.7693C44.9842 36.9693 45.0375 37.1427 45.1442 37.2893C45.2508 37.436 45.3975 37.556 45.5842 37.6493C45.7842 37.7427 46.0108 37.8293 46.2642 37.9093L48.0042 38.4293C48.8975 38.696 49.5842 39.096 50.0642 39.6293C50.5575 40.1627 50.8042 40.816 50.8042 41.5893C50.8042 42.2427 50.6308 42.8227 50.2842 43.3293C49.9375 43.8227 49.4575 44.2093 48.8442 44.4893C48.2308 44.7693 47.5108 44.9093 46.6842 44.9093ZM55.6776 44.9093C54.9176 44.9093 54.2576 44.7827 53.6976 44.5293C53.1376 44.276 52.7043 43.916 52.3976 43.4493C52.0909 42.9693 51.9376 42.416 51.9376 41.7893C51.9376 41.1893 52.0709 40.656 52.3376 40.1893C52.6043 39.7093 53.0176 39.3093 53.5776 38.9893C54.1376 38.6693 54.8443 38.4427 55.6976 38.3093L59.2576 37.7293V39.7293L56.1976 40.2493C55.6776 40.3427 55.2909 40.5093 55.0376 40.7493C54.7843 40.9893 54.6576 41.3027 54.6576 41.6893C54.6576 42.0627 54.7976 42.3627 55.0776 42.5893C55.3709 42.8027 55.7309 42.9093 56.1576 42.9093C56.7043 42.9093 57.1843 42.796 57.5976 42.5693C58.0243 42.3293 58.3509 42.0027 58.5776 41.5893C58.8176 41.176 58.9376 40.7227 58.9376 40.2293V37.4293C58.9376 36.9627 58.7509 36.576 58.3776 36.2693C58.0176 35.9493 57.5376 35.7893 56.9376 35.7893C56.3776 35.7893 55.8776 35.9427 55.4376 36.2493C55.0109 36.5427 54.6976 36.936 54.4976 37.4293L52.3576 36.3893C52.5709 35.816 52.9043 35.3227 53.3576 34.9093C53.8243 34.4827 54.3709 34.1493 54.9976 33.9093C55.6243 33.6693 56.3043 33.5493 57.0376 33.5493C57.9309 33.5493 58.7176 33.716 59.3976 34.0493C60.0776 34.3693 60.6043 34.8227 60.9776 35.4093C61.3643 35.9827 61.5576 36.656 61.5576 37.4293V44.6693H59.0776V42.8093L59.6376 42.7693C59.3576 43.236 59.0243 43.6293 58.6376 43.9493C58.2509 44.256 57.8109 44.496 57.3176 44.6693C56.8243 44.8293 56.2776 44.9093 55.6776 44.9093ZM63.5392 44.6693V29.5293H66.1592V35.9293L65.7992 35.5493C66.0525 34.896 66.4658 34.4027 67.0392 34.0693C67.6258 33.7227 68.3058 33.5493 69.0792 33.5493C69.8792 33.5493 70.5858 33.7227 71.1992 34.0693C71.8258 34.416 72.3125 34.9027 72.6592 35.5293C73.0058 36.1427 73.1792 36.856 73.1792 37.6693V44.6693H70.5592V38.2893C70.5592 37.8093 70.4658 37.396 70.2792 37.0493C70.0925 36.7027 69.8325 36.436 69.4992 36.2493C69.1792 36.0493 68.7992 35.9493 68.3592 35.9493C67.9325 35.9493 67.5525 36.0493 67.2192 36.2493C66.8858 36.436 66.6258 36.7027 66.4392 37.0493C66.2525 37.396 66.1592 37.8093 66.1592 38.2893V44.6693H63.5392ZM78.2893 44.6693V29.7693H83.8493C84.8626 29.7693 85.756 29.956 86.5293 30.3293C87.316 30.6893 87.9293 31.2227 88.3693 31.9293C88.8093 32.6227 89.0293 33.4693 89.0293 34.4693C89.0293 35.456 88.8026 36.3027 88.3493 37.0093C87.9093 37.7027 87.3026 38.236 86.5293 38.6093C85.756 38.9827 84.8626 39.1693 83.8493 39.1693H81.0093V44.6693H78.2893ZM81.0093 36.7693H83.8893C84.3826 36.7693 84.8093 36.676 85.1693 36.4893C85.5293 36.2893 85.8093 36.016 86.0093 35.6693C86.2093 35.3227 86.3093 34.9227 86.3093 34.4693C86.3093 34.0027 86.2093 33.6027 86.0093 33.2693C85.8093 32.9227 85.5293 32.656 85.1693 32.4693C84.8093 32.2693 84.3826 32.1693 83.8893 32.1693H81.0093V36.7693ZM90.5981 44.6693V33.7893H93.0581V36.2093L92.8581 35.8493C93.1114 35.036 93.5047 34.4693 94.0381 34.1493C94.5847 33.8293 95.2381 33.6693 95.9981 33.6693H96.6381V35.9893H95.6981C94.9514 35.9893 94.3514 36.2227 93.8981 36.6893C93.4447 37.1427 93.2181 37.7827 93.2181 38.6093V44.6693H90.5981ZM102.799 44.9093C101.679 44.9093 100.699 44.656 99.8585 44.1493C99.0185 43.6427 98.3652 42.956 97.8985 42.0893C97.4319 41.2227 97.1985 40.2627 97.1985 39.2093C97.1985 38.116 97.4319 37.1493 97.8985 36.3093C98.3785 35.456 99.0252 34.7827 99.8385 34.2893C100.665 33.796 101.585 33.5493 102.599 33.5493C103.452 33.5493 104.199 33.6893 104.839 33.9693C105.492 34.2493 106.045 34.636 106.499 35.1293C106.952 35.6227 107.299 36.1893 107.539 36.8293C107.779 37.456 107.899 38.136 107.899 38.8693C107.899 39.056 107.885 39.2493 107.859 39.4493C107.845 39.6493 107.812 39.8227 107.759 39.9693H99.3585V37.9693H106.279L105.039 38.9093C105.159 38.296 105.125 37.7493 104.939 37.2693C104.765 36.7893 104.472 36.4093 104.059 36.1293C103.659 35.8493 103.172 35.7093 102.599 35.7093C102.052 35.7093 101.565 35.8493 101.139 36.1293C100.712 36.396 100.385 36.796 100.159 37.3293C99.9452 37.8493 99.8652 38.4827 99.9185 39.2293C99.8652 39.896 99.9519 40.4893 100.179 41.0093C100.419 41.516 100.765 41.9093 101.219 42.1893C101.685 42.4693 102.219 42.6093 102.819 42.6093C103.419 42.6093 103.925 42.4827 104.339 42.2293C104.765 41.976 105.099 41.636 105.339 41.2093L107.459 42.2493C107.245 42.7693 106.912 43.2293 106.459 43.6293C106.005 44.0293 105.465 44.3427 104.839 44.5693C104.225 44.796 103.545 44.9093 102.799 44.9093ZM113.585 44.9093C112.425 44.9093 111.411 44.636 110.545 44.0893C109.691 43.5293 109.105 42.776 108.785 41.8293L110.745 40.8893C111.025 41.5027 111.411 41.9827 111.905 42.3293C112.411 42.676 112.971 42.8493 113.585 42.8493C114.065 42.8493 114.445 42.7427 114.725 42.5293C115.005 42.316 115.145 42.036 115.145 41.6893C115.145 41.476 115.085 41.3027 114.965 41.1693C114.858 41.0227 114.705 40.9027 114.505 40.8093C114.318 40.7027 114.111 40.616 113.885 40.5493L112.105 40.0493C111.185 39.7827 110.485 39.376 110.005 38.8293C109.538 38.2827 109.305 37.636 109.305 36.8893C109.305 36.2227 109.471 35.6427 109.805 35.1493C110.151 34.6427 110.625 34.2493 111.225 33.9693C111.838 33.6893 112.538 33.5493 113.325 33.5493C114.351 33.5493 115.258 33.796 116.045 34.2893C116.831 34.7827 117.391 35.476 117.725 36.3693L115.725 37.3093C115.538 36.816 115.225 36.4227 114.785 36.1293C114.345 35.836 113.851 35.6893 113.305 35.6893C112.865 35.6893 112.518 35.7893 112.265 35.9893C112.011 36.1893 111.885 36.4493 111.885 36.7693C111.885 36.9693 111.938 37.1427 112.045 37.2893C112.151 37.436 112.298 37.556 112.485 37.6493C112.685 37.7427 112.911 37.8293 113.165 37.9093L114.905 38.4293C115.798 38.696 116.485 39.096 116.965 39.6293C117.458 40.1627 117.705 40.816 117.705 41.5893C117.705 42.2427 117.531 42.8227 117.185 43.3293C116.838 43.8227 116.358 44.2093 115.745 44.4893C115.131 44.7693 114.411 44.9093 113.585 44.9093ZM124.238 44.7893C123.011 44.7893 122.058 44.456 121.378 43.7893C120.711 43.1093 120.378 42.156 120.378 40.9293V36.1293H118.498V33.7893H118.698C119.231 33.7893 119.645 33.6493 119.938 33.3693C120.231 33.0893 120.378 32.6827 120.378 32.1493V31.3093H122.998V33.7893H125.498V36.1293H122.998V40.7893C122.998 41.1493 123.058 41.456 123.178 41.7093C123.311 41.9627 123.511 42.156 123.778 42.2893C124.058 42.4227 124.411 42.4893 124.838 42.4893C124.931 42.4893 125.038 42.4827 125.158 42.4693C125.291 42.456 125.418 42.4427 125.538 42.4293V44.6693C125.351 44.696 125.138 44.7227 124.898 44.7493C124.658 44.776 124.438 44.7893 124.238 44.7893ZM130.361 44.9093C129.601 44.9093 128.941 44.7827 128.381 44.5293C127.821 44.276 127.387 43.916 127.081 43.4493C126.774 42.9693 126.621 42.416 126.621 41.7893C126.621 41.1893 126.754 40.656 127.021 40.1893C127.287 39.7093 127.701 39.3093 128.261 38.9893C128.821 38.6693 129.527 38.4427 130.381 38.3093L133.941 37.7293V39.7293L130.881 40.2493C130.361 40.3427 129.974 40.5093 129.721 40.7493C129.467 40.9893 129.341 41.3027 129.341 41.6893C129.341 42.0627 129.481 42.3627 129.761 42.5893C130.054 42.8027 130.414 42.9093 130.841 42.9093C131.387 42.9093 131.867 42.796 132.281 42.5693C132.707 42.3293 133.034 42.0027 133.261 41.5893C133.501 41.176 133.621 40.7227 133.621 40.2293V37.4293C133.621 36.9627 133.434 36.576 133.061 36.2693C132.701 35.9493 132.221 35.7893 131.621 35.7893C131.061 35.7893 130.561 35.9427 130.121 36.2493C129.694 36.5427 129.381 36.936 129.181 37.4293L127.041 36.3893C127.254 35.816 127.587 35.3227 128.041 34.9093C128.507 34.4827 129.054 34.1493 129.681 33.9093C130.307 33.6693 130.987 33.5493 131.721 33.5493C132.614 33.5493 133.401 33.716 134.081 34.0493C134.761 34.3693 135.287 34.8227 135.661 35.4093C136.047 35.9827 136.241 36.656 136.241 37.4293V44.6693H133.761V42.8093L134.321 42.7693C134.041 43.236 133.707 43.6293 133.321 43.9493C132.934 44.256 132.494 44.496 132.001 44.6693C131.507 44.8293 130.961 44.9093 130.361 44.9093ZM142.362 44.9093C141.202 44.9093 140.189 44.636 139.322 44.0893C138.469 43.5293 137.882 42.776 137.562 41.8293L139.522 40.8893C139.802 41.5027 140.189 41.9827 140.682 42.3293C141.189 42.676 141.749 42.8493 142.362 42.8493C142.842 42.8493 143.222 42.7427 143.502 42.5293C143.782 42.316 143.922 42.036 143.922 41.6893C143.922 41.476 143.862 41.3027 143.742 41.1693C143.636 41.0227 143.482 40.9027 143.282 40.8093C143.096 40.7027 142.889 40.616 142.662 40.5493L140.882 40.0493C139.962 39.7827 139.262 39.376 138.782 38.8293C138.316 38.2827 138.082 37.636 138.082 36.8893C138.082 36.2227 138.249 35.6427 138.582 35.1493C138.929 34.6427 139.402 34.2493 140.002 33.9693C140.616 33.6893 141.316 33.5493 142.102 33.5493C143.129 33.5493 144.036 33.796 144.822 34.2893C145.609 34.7827 146.169 35.476 146.502 36.3693L144.502 37.3093C144.316 36.816 144.002 36.4227 143.562 36.1293C143.122 35.836 142.629 35.6893 142.082 35.6893C141.642 35.6893 141.296 35.7893 141.042 35.9893C140.789 36.1893 140.662 36.4493 140.662 36.7693C140.662 36.9693 140.716 37.1427 140.822 37.2893C140.929 37.436 141.076 37.556 141.262 37.6493C141.462 37.7427 141.689 37.8293 141.942 37.9093L143.682 38.4293C144.576 38.696 145.262 39.096 145.742 39.6293C146.236 40.1627 146.482 40.816 146.482 41.5893C146.482 42.2427 146.309 42.8227 145.962 43.3293C145.616 43.8227 145.136 44.2093 144.522 44.4893C143.909 44.7693 143.189 44.9093 142.362 44.9093ZM148.056 44.6693V33.7893H150.676V44.6693H148.056ZM148.056 32.5693V29.7693H150.676V32.5693H148.056Z" fill="#4467D4"/>
</svg>
